<svg style="width:0px;height:0px" svg-mode="svg_bottom_volume_full" width="100%" height="100%" viewBox="0 0 36 36" version="1.1" xmlns="http://www.w3.org/2000/svg"
                                 xmlns:xlink="http://www.w3.org/1999/xlink">
	<path d="M12.39,15.54 L10,15.54 L10,20.44 L12.4,20.44 L17,25.50 L17,10.48 L12.39,15.54 Z" opacity="1" fill="#fff"></path>
	<path d="M12.39,15.54 L10,15.54 L10,20.44 L12.4,20.44 L17,25.50 L17,10.48 L12.39,15.54 Z" opacity="1" fill="#fff"></path>
	<path d="M22,17.99 C22,16.4 20.74,15.05 19,14.54 L19,21.44 C20.74,20.93 22,19.59 22,17.99 Z" opacity="1" fill="#fff"></path>
	<path d="M22,17.99 C22,16.4 20.74,15.05 19,14.54 L19,21.44 C20.74,20.93 22,19.59 22,17.99 Z" opacity="1" fill="#fff"></path>
	<path d="M19,24.31 L19,26 C22.99,25.24 26,21.94 26,18 C26,14.05 22.99,10.75 19,10 L19,11.68 C22.01,12.41 24.24,14.84 24.24,18 C24.24,21.15 22.01,23.58 19,24.31 Z" opacity="1" fill="#fff"></path>
	<path d="M19,24.31 L19,26 C22.99,25.24 26,21.94 26,18 C26,14.05 22.99,10.75 19,10 L19,11.68 C22.01,12.41 24.24,14.84 24.24,18 C24.24,21.15 22.01,23.58 19,24.31 Z" opacity="1" fill="#fff"></path>
</svg>