<svg width="100%" height="100%" viewBox="0 0 36 36" version="1.1" xmlns="http://www.w3.org/2000/svg" xmlns:xlink="http://www.w3.org/1999/xlink">
    <path d="M12.39,15.54 L10,15.54 L10,20.44 L12.4,20.44 L17,25.50 L17,10.48 L12.39,15.54 Z" opacity="1" fill="#fff"></path>
    <path d="M12.39,15.54 L10,15.54 L10,20.44 L12.4,20.44 L17,25.50 L17,10.48 L12.39,15.54 Z" opacity="1" fill="#fff"></path>
    <path d="M19.63,15.92 L20.68,14.93 L22.81,16.94 L24.94,14.93 L26,15.92 L23.86,17.93 L26,19.93 L24.94,20.92 L22.81,18.92 L20.68,20.92 L19.63,19.93 L21.76,17.93 L19.63,15.92 Z" opacity="1" fill="#fff"></path>
    <path d="M19.63,15.92 L20.68,14.93 L22.81,16.94 L24.94,14.93 L26,15.92 L23.86,17.93 L26,19.93 L24.94,20.92 L22.81,18.92 L20.68,20.92 L19.63,19.93 L21.76,17.93 L19.63,15.92 Z" opacity="1" fill="#fff"></path>
</svg>